PathFileType	4	(X/Y/Z)	Patient4_TMGait_0pt4_02_right_16.trc.trc
DataRate	CameraRate	NumFrames	NumMarkers	Units	OrigDataRate	OrigDataStartFrame	OrigNumFrames
73.684210526316	73.684210526316	6	33	mm	73.684210526316	124	       141
Frame#	Time	Sacral			L.Shoulder			Chest			R.Shoulder			Neck			R.ASIS			L.ASIS			R.Thigh.Superior			R.Thigh.Lateral			R.Thigh.Inferior			R.Patella			L.Thigh.Superior			L.Thigh.Lateral			L.Thigh.Inferior			L.Patella			L.Shank.Superior			L.Shank.Lateral			L.Shank.Inferior			R.Shank.Superior			R.Shank.Lateral			R.Shank.Inferior			R.Heel			R.Midfoot.Superior			R.Midfoot.Lateral			R.Toe			L.Heel			L.Midfoot.Lateral			L.Midfoot.Superior			L.Toe			L.Elbow			L.Wrist			R.Elbow			R.Wrist			
		X1	Y1	Z1	X2	Y2	Z2	X3	Y3	Z3	X4	Y4	Z4	X5	Y5	Z5	X6	Y6	Z6	X7	Y7	Z7	X8	Y8	Z8	X9	Y9	Z9	X10	Y10	Z10	X11	Y11	Z11	X12	Y12	Z12	X13	Y13	Z13	X14	Y14	Z14	X15	Y15	Z15	X16	Y16	Z16	X17	Y17	Z17	X18	Y18	Z18	X19	Y19	Z19	X20	Y20	Z20	X21	Y21	Z21	X22	Y22	Z22	X23	Y23	Z23	X24	Y24	Z24	X25	Y25	Z25	X26	Y26	Z26	X27	Y27	Z27	X28	Y28	Z28	X29	Y29	Z29	X30	Y30	Z30	X31	Y31	Z31	X32	Y32	Z32	X33	Y33	Z33	

124	22.329285714286	876.495591267250	1001.223846979829	411.453735624283	1079.490816756743	1417.195511867628	217.441621010797	1164.594669648645	1359.676660820476	392.177478738484	1064.012100206812	1444.820473144592	551.708587881223	1060.075870254260	1489.226074416935	365.974669183018	1099.409951116783	938.070931988692	542.530538081715	1100.943275026093	959.473653865920	266.716290893555	1161.296563986256	748.163123828357	522.769202231957	1097.016139529851	633.210214324873	594.007713858767	1184.208499060051	586.134515149326	518.597051783242	1206.320914783216	508.556400580567	533.881986648452	1114.003879123135	735.161714622799	295.624844391404	1004.830597275125	632.156246117044	233.751681803225	1072.542946975596	542.796516161892	296.109447849070	1060.507168147437	473.856776383898	305.776996201125	1024.185514612207	406.768183608703	299.074284586937	917.154032822164	305.465168360146	251.384970102608	952.896056244840	188.560640846970	324.158369322130	1192.019228594101	421.513397292900	547.506354724710	1140.594906806865	310.489037280705	615.663700197205	1208.874338369220	223.073983035216	566.134652741350	1113.613717955500	44.961689950472	548.542211898642	1282.670734144617	105.551445834655	577.142935889538	1200.726826628410	39.928893834447	618.497434050594	1405.739527559023	59.888917098251	598.468452747197	811.381310770326	41.233728041611	372.145959629466	883.284932769255	35.853874980274	290.421306210167	968.260114886118	95.665684154206	314.750286972169	1095.551038780843	40.526484243431	284.027277433804	1138.016518226244	1070.620019999042	100.185121051772	1319.163341954222	880.861608404236	126.015617617188	935.658862502719	1136.884177331731	690.737852428298	984.357186711352	881.512155311146	728.164307759885	
125	22.342857142857	877.878925311909	1000.499441691413	414.445433941738	1079.260028435218	1416.828164901984	220.248249334173	1165.307233459068	1359.484026614785	394.660383784771	1064.975742402879	1444.304789374565	554.611068579182	1060.449999574452	1488.865325018138	368.930323111440	1101.551632804888	937.367147854510	544.265289028309	1101.895441077959	959.153486563156	268.722493754818	1163.127397889085	746.592219439061	523.912122206912	1097.655417309845	631.874190225847	594.401723754186	1184.480287245092	585.009346639928	518.710167572665	1205.633393228438	506.716112694092	533.325181971750	1114.018528479993	734.451350551290	296.302395288751	1003.194296701695	632.431323709215	235.150903433546	1070.651928102791	542.272310501446	296.596643860207	1058.203661322365	473.304632228650	306.295831828143	1021.267343345129	406.578820782876	299.581502685531	913.126224230188	306.348578539378	252.087180144041	948.346101571387	188.818900760195	324.198408177446	1190.416996784482	418.909794239422	547.007344185299	1137.036362004844	308.528319770702	614.909747136885	1203.308067662693	219.872864113252	564.870162076846	1104.125921160352	43.787877870574	547.868357415927	1274.177022531647	102.219064836502	575.217529003709	1191.431143849008	38.344565035076	617.682717463575	1397.016182193703	54.792387876741	596.490782266383	806.024777034709	41.989388869285	372.003319237518	877.953002704228	36.157970596183	290.393478795655	963.107650728445	95.811428334474	314.585278461745	1090.188935468882	40.279314463165	283.957234943469	1135.250653881197	1069.277236518254	103.580169147672	1314.082332557883	877.120055062488	128.185601117294	938.431645039238	1135.990827243210	694.410313562012	992.814696705887	881.171167148811	728.773002321542	
126	22.356428571429	879.236147399569	1000.017448343575	417.482587094221	1079.227753432780	1416.672240539690	223.180841048671	1166.160687619364	1359.416531893907	397.263264988906	1066.126058571145	1443.922302708553	557.639455908043	1060.992325149874	1488.689625134925	372.040160295745	1103.606028507541	936.919695177140	546.098211421124	1102.828401653133	958.915266366070	270.859580846171	1164.825458696195	745.367219276574	525.067779871459	1098.459451239250	631.008677959634	595.064215659872	1184.818030474221	584.348571187787	518.939576247204	1205.074127223778	505.339887676637	533.021167800697	1114.126036175244	733.874639690791	297.124300897707	1001.780697588387	632.803760110416	236.654417599319	1069.056435907889	541.874427334011	297.209119011581	1056.228526415393	472.827985955984	306.894961004319	1018.599274363319	406.486672008444	300.160277331749	909.292879469602	307.408396017038	252.850980799597	943.929993687882	189.202126606894	324.221111421413	1189.147629999464	416.873108863697	546.848244713192	1134.155514246668	307.097005195728	614.634830758274	1198.478979868424	217.358706451116	563.966506110311	1095.795831798061	42.935104411543	547.548580129323	1266.618554015346	99.831661786973	573.735709785592	1183.310584490894	37.305507274367	617.199471446780	1389.328482346806	51.035835558458	594.884505930983	800.709424610881	43.005686831826	371.821501685377	872.664921869628	36.573187078910	290.339723186943	958.053380413509	96.015435394018	314.369028710878	1084.867613583468	40.001283349898	283.874712861244	1132.186958292926	1068.112676154182	107.048759991393	1308.275087448184	873.215377521866	130.170883804542	941.503042125909	1135.244841282053	698.336198927838	1001.900359361364	881.251224243403	729.814107258895	
127	22.370000000000	880.551733843435	999.827231344218	420.527365310634	1079.444946958649	1416.760859812073	226.206868955842	1167.146625774564	1359.493668756227	399.969925914456	1067.438845981126	1443.713584813047	560.751911691931	1061.716505370787	1488.724312993173	375.260115633823	1105.500393281613	936.769554562479	548.082902466032	1103.729378964777	958.782304768995	273.150656898807	1166.380809484059	744.607351514318	526.274446387856	1099.503506752598	630.654707720215	596.026416186812	1185.291788055347	584.205346145962	519.319536709225	1204.705371206655	504.452859178607	533.056838131619	1114.321816227515	733.471300732520	298.182053776267	1000.660776006505	633.273185138863	238.267016651680	1067.825748836558	541.618771726195	297.977872927991	1054.661892260824	472.426490993236	307.565404173635	1016.236586545982	406.498155009188	300.803054236214	905.701264175774	308.664252288965	253.672500196622	939.674174380832	189.723782054178	324.213896156004	1188.225090941505	415.421775594918	547.048611697058	1131.942934201642	306.215421028356	614.840105966296	1194.365509203894	215.547870668446	563.436113502077	1088.613384586596	42.400879377804	547.515272397425	1259.987770507891	98.336404936277	572.727846769337	1176.326616508880	36.746188792826	617.002454890639	1382.643531238910	48.548408730768	593.705580093246	795.445418195236	44.322975239123	371.597803112210	867.424960309304	37.116674315763	290.256990955943	953.111384237263	96.284748011856	314.089364670674	1079.586645192047	39.697142277446	283.781118594531	1128.830218372058	1067.174587757209	110.585468254226	1301.724252169749	869.213704840821	131.965656876703	944.867690312609	1134.678319283812	702.458930024829	1011.578913588601	881.830183604150	731.290836310549	
128	22.383571428571	881.822835269629	999.943562856794	423.562591310882	1079.937937986812	1417.099708640179	229.296658417599	1168.244457771455	1359.719791488811	402.766389800427	1068.873435010502	1443.700008983456	563.910588134750	1062.613941908566	1488.971214006103	378.546062770537	1107.193634747179	936.928931490969	550.278563084761	1104.595807962819	958.767911791855	275.619908381237	1167.812316554334	744.376940868839	527.579027101017	1100.842902251791	630.789981314925	597.293024920443	1185.959333201205	584.553697575456	519.878148564964	1204.555669015181	504.003507194438	533.469416581949	1114.611989046988	733.267135894403	299.548826036619	999.900518251850	633.825568650928	239.990966746563	1067.031693040002	541.506609007088	298.918944525831	1053.587512683280	472.086312611475	308.283731185311	1014.238144263632	406.605956029426	301.494672385249	902.400311886968	310.127020194012	254.547133938776	935.606281198576	190.391286446112	324.165020767766	1187.608133506876	414.498178979661	547.575566880645	1130.296776835869	305.834832379039	615.462240746285	1190.846247999720	214.371182044001	563.238937423627	1082.416497690015	42.146577855567	547.684538382773	1254.147865887805	97.588997073688	572.159544939018	1170.296473416065	36.563355435989	617.025231241834	1376.798497572214	47.131796659596	592.949586241250	790.244722848015	45.975233097604	371.332520127390	862.235261045734	37.805415101680	290.144619200611	948.292845000613	96.624204192002	313.735952002069	1074.338901682191	39.375696923473	283.679315713434	1125.184107378034	1066.493098355219	114.178588209016	1294.419404945485	865.177484941120	133.573096508109	948.508589193483	1134.309417274254	706.736340792133	1021.838789893546	882.981400203056	733.189088077299	
129	22.397142857143	883.057465590302	1000.340829076865	426.595461979642	1080.698274318587	1417.663554972701	232.428143022760	1169.422751997085	1360.083768384544	405.642823406690	1070.376883250744	1443.879174024530	567.088293928458	1063.653719250858	1489.408004786132	381.861541784419	1108.683638984488	937.378262262625	552.737055685385	1105.436803985596	958.873715005623	278.287945405679	1169.155291718257	744.664342586069	529.036268881282	1102.469892114683	631.328394664558	598.841779149627	1186.833322089904	585.286891692897	520.642045799790	1204.598478616477	503.878512038014	534.239723632217	1115.018564957976	733.269553498084	301.269278462818	999.561737765987	634.431653519823	241.827137854029	1066.750629896376	541.523641635451	300.035219586165	1053.093154295088	471.779521547468	309.019124814141	1012.669606397112	406.788567847984	302.217157168454	899.445027250022	311.798850473570	255.471768174581	931.758476166804	191.207272536116	324.067214421150	1187.201307035238	413.989362631791	548.356627364656	1129.050132042707	305.851437345354	616.392444238105	1187.742162335413	213.700443638307	563.297266090807	1076.958592566708	42.110510522204	547.971168273143	1248.891952949871	97.396488261017	571.948961572531	1164.962382436295	36.640813101204	617.193386339433	1371.563736309996	46.518018224456	592.563555443242	785.122779047099	47.993978307666	371.029206297814	857.096865331924	38.660236565020	290.004722724433	943.607708444342	97.037003798521	313.302005064844	1069.109882732816	39.048626914828	283.573507578866	1121.253342784456	1066.074808451040	117.811750206032	1286.359341784808	861.159798068927	135.004974643994	952.397903628934	1134.138914560023	711.147069412396	1032.689102854032	884.770931403772	735.478271216243	
